<svg id="Layer_1" xmlns="http://www.w3.org/2000/svg" viewBox="0 0 187 80"><style>.st0{fill:#393e59}</style><path class="st0" d="M.5.3v16.9h7.4V9.6H23V55c0 2.5 2.8 6.5 7.5 6.5s7.4-3.9 7.4-6.7V9.5h15.4v7.6h7.6V.3H.5z"/><path class="st0" d="M53.3 23v27c0 3.6-.7 5.7-2.7 9.3-2 3.6-5.6 7.1-9.1 9.1-3.4 2-7.7 2.9-11.1 2.9-3.3 0-5.8-.7-8.1-1.5-2.3-.9-5.6-2.9-7.9-5.2-2.3-2.3-3.7-5.1-4.4-6.5-.6-1.2-2.1-5.2-2.1-7.9V23.1H.5v56.7h60.4V23h-7.6zM84.3.9V.3h7.5v.6H91c-.8 0-1.5.3-1.9 1-.2.3-.3 1.1-.3 2.2v8.6c0 2.1-.2 3.8-.6 4.9-.4 1.2-1.2 2.2-2.5 3-1.2.8-2.9 1.3-5 1.3-2.3 0-4.1-.4-5.2-1.2-1.2-.8-2-1.9-2.5-3.2-.3-.9-.5-2.7-.5-5.2V4.1c0-1.3-.2-2.1-.5-2.6-.4-.4-.9-.6-1.7-.6h-.8V.3h9.1v.6h-.8c-.9 0-1.5.3-1.9.8-.3.4-.4 1.2-.4 2.3v9.2c0 .8.1 1.8.2 2.8.2 1.1.4 1.9.8 2.5.4.6 1 1.1 1.7 1.5.7.4 1.7.6 2.7.6 1.4 0 2.6-.3 3.7-.9 1.1-.6 1.8-1.4 2.2-2.3.4-.9.6-2.5.6-4.8V4.1c0-1.3-.1-2.1-.4-2.5-.4-.5-1-.7-1.8-.7h-.9z"/><path class="st0" d="M91.7.3h5.7l12.9 15.8V4c0-1.3-.1-2.1-.4-2.4-.4-.4-1-.7-1.8-.7h-.7V.3h7.3v.6h-.7c-.9 0-1.5.3-1.9.8-.2.3-.3 1.1-.3 2.3v17.8h-.6l-13.9-17v13c0 1.3.1 2.1.4 2.4.4.4 1 .7 1.8.7h.7v.6h-7.3v-.6h.7c.9 0 1.5-.3 1.9-.8.2-.3.3-1.1.3-2.3V3.1c-.6-.7-1.1-1.2-1.4-1.4-.3-.2-.8-.4-1.4-.6-.3-.1-.8-.1-1.4-.1V.3zM125 20.9v.6h-9v-.6h.7c.9 0 1.5-.3 1.9-.8.2-.3.4-1.1.4-2.4V4.1c0-1.1-.1-1.8-.2-2.1-.1-.3-.3-.5-.6-.7-.5-.2-.9-.4-1.4-.4h-.7V.3h9v.6h-.8c-.9 0-1.5.3-1.9.8-.3.3-.4 1.1-.4 2.4v13.6c0 1.1.1 1.8.2 2.1.1.3.3.5.7.7.4.2.9.4 1.4.4h.7zM144.2.3l.2 4.9h-.6c-.1-.9-.3-1.5-.5-1.9-.3-.6-.7-1-1.3-1.3-.5-.3-1.2-.4-2.1-.4h-3v16.1c0 1.3.1 2.1.4 2.4.4.4 1 .7 1.8.7h.7v.6H131v-.6h.7c.9 0 1.5-.3 1.9-.8.2-.3.3-1.1.3-2.3v-16h-2.5c-1 0-1.7.1-2.1.2-.5.2-1 .6-1.4 1.1-.4.6-.6 1.3-.7 2.3h-.6l.2-4.9h17.4zM151.9 1.5v8.3h4.6c1.2 0 2-.2 2.4-.5.5-.5.8-1.3.9-2.5h.6v7.3h-.6c-.1-1-.3-1.7-.4-2-.2-.4-.5-.6-.9-.9-.4-.2-1.1-.3-2-.3h-4.6v7c0 .9 0 1.5.1 1.7.1.2.2.4.4.5.2.1.6.2 1.2.2h3.6c1.2 0 2.1-.1 2.6-.2.5-.2 1.1-.5 1.6-1 .6-.6 1.3-1.6 2-2.9h.6l-1.8 5.3h-16.3v-.6h.7c.5 0 1-.1 1.4-.4.3-.2.6-.4.7-.7.1-.3.2-1 .2-2V4c0-1.3-.1-2.2-.4-2.5-.4-.4-1-.6-1.9-.6h-.7V.3h16.3l.2 4.6h-.6c-.2-1.1-.5-1.9-.7-2.3-.3-.4-.7-.7-1.2-.9-.4-.2-1.1-.2-2.2-.2h-5.8zM165.2 21.4v-.6h.8c.9 0 1.5-.3 1.9-.9.2-.3.3-1.1.3-2.3V4.1c0-1.3-.1-2.1-.4-2.5-.4-.5-1-.7-1.8-.7h-.8V.3h8.6c3.2 0 5.6.4 7.2 1.1 1.6.7 3 1.9 4 3.6 1 1.7 1.5 3.6 1.5 5.8 0 2.9-.9 5.4-2.7 7.4-2 2.2-5.1 3.3-9.2 3.3h-9.4zm6.1-1.5c1.3.3 2.4.4 3.3.4 2.4 0 4.4-.8 6-2.5 1.6-1.7 2.4-4 2.4-6.9 0-2.9-.8-5.2-2.4-6.9-1.6-1.7-3.6-2.5-6.1-2.5-.9 0-2 .2-3.2.5v17.9zM86.8 29.3l.2 4.9h-.6c-.1-.9-.3-1.5-.5-1.9-.3-.6-.7-1-1.3-1.3-.5-.3-1.2-.4-2.1-.4h-3v16.1c0 1.3.1 2.1.4 2.4.4.4 1 .7 1.8.7h.7v.6h-8.9v-.6h.7c.9 0 1.5-.3 1.9-.8.2-.3.3-1.1.3-2.3V30.6h-2.5c-1 0-1.7.1-2.1.2-.5.2-1 .6-1.4 1.1-.4.6-.6 1.3-.7 2.3h-.6l.2-4.9h17.5zM94.5 30.4v8.3h4.6c1.2 0 2-.2 2.4-.5.5-.5.8-1.3.9-2.5h.6V43h-.6c-.1-1-.3-1.7-.4-2-.2-.4-.5-.6-.9-.9-.4-.2-1.1-.3-2-.3h-4.6v7c0 .9 0 1.5.1 1.7.1.2.2.4.4.5.2.1.6.2 1.2.2h3.6c1.2 0 2.1-.1 2.6-.2.5-.2 1.1-.5 1.6-1 .6-.6 1.3-1.6 2-2.9h.6l-1.8 5.3H88.5v-.6h.7c.5 0 1-.1 1.4-.4.3-.2.6-.4.7-.7.1-.3.2-1 .2-2V33c0-1.3-.1-2.2-.4-2.5-.4-.4-1-.6-1.9-.6h-.7v-.6h16.3l.2 4.6h-.6c-.2-1.1-.5-1.9-.7-2.3-.3-.4-.7-.7-1.2-.9-.4-.2-1.1-.2-2.2-.2h-5.8zM120.3 38.7l4.5 6.8c1.3 1.9 2.2 3 2.8 3.5.6.5 1.4.8 2.3.8v.6h-9.1v-.6c.6 0 1-.1 1.3-.2.2-.1.4-.2.5-.4.1-.2.2-.4.2-.6 0-.2 0-.5-.1-.7-.1-.2-.4-.6-.9-1.4l-3.6-5.4-4.4 5.7c-.5.6-.7 1-.8 1.2-.1.2-.1.4-.1.6 0 .3.1.6.4.8.3.2.8.3 1.6.4v.6h-7.5v-.6c.5-.1 1-.2 1.4-.3.6-.3 1.3-.6 1.8-1.1.6-.5 1.2-1.2 2-2.1l5-6.3-4.2-6.1c-1.1-1.6-2.1-2.7-2.9-3.2-.8-.5-1.7-.8-2.7-.8v-.6h9.8v.6c-.8 0-1.4.2-1.7.4-.3.2-.5.5-.5.8 0 .4.2.9.7 1.7l3.2 4.8 3.7-4.7c.4-.6.7-.9.8-1.2.1-.2.1-.4.1-.6 0-.2-.1-.4-.2-.6-.2-.2-.4-.4-.6-.5-.2-.1-.7-.1-1.5-.1v-.6h7.5v.6c-.6 0-1.1.1-1.4.3-.6.2-1.1.6-1.5 1-.5.4-1.1 1.2-2 2.2l-3.9 5.3zM144.9 43.3h-8.2l-1.4 3.3c-.4.8-.5 1.4-.5 1.8 0 .3.2.6.5.8.3.2 1 .4 2 .5v.6h-6.6v-.6c.9-.2 1.5-.4 1.7-.6.5-.5 1.1-1.5 1.8-3l7.4-17.4h.5l7.3 17.6c.6 1.4 1.1 2.3 1.6 2.7.5.4 1.2.7 2 .7v.6h-8.3v-.6c.8 0 1.4-.2 1.7-.4.3-.2.4-.5.4-.9 0-.5-.2-1.2-.6-2.2l-1.3-2.9zm-.4-1.1l-3.6-8.5-3.7 8.5h7.3zM168 28.8v7.3h-.6c-.2-1.4-.5-2.5-1-3.3-.5-.8-1.2-1.5-2.1-2-.9-.5-1.8-.7-2.8-.7-1.1 0-2 .3-2.7 1-.7.7-1.1 1.4-1.1 2.2 0 .6.2 1.2.7 1.8.6.8 2.2 1.8 4.6 3.1 2 1.1 3.3 1.9 4 2.4.7.6 1.3 1.2 1.7 2 .4.8.6 1.6.6 2.4 0 1.6-.6 3-1.9 4.1-1.2 1.2-2.8 1.7-4.8 1.7-.6 0-1.2 0-1.7-.1-.3-.1-1-.2-2-.6-1-.3-1.7-.5-1.9-.5-.3 0-.5.1-.6.2-.2.2-.3.5-.3 1h-.6v-7.2h.6c.3 1.5.6 2.6 1.1 3.4.5.8 1.2 1.4 2.1 1.9.9.5 2 .7 3.1.7 1.3 0 2.3-.3 3.1-1 .8-.7 1.1-1.5 1.1-2.4 0-.5-.1-1-.4-1.6-.3-.5-.7-1-1.3-1.5-.4-.3-1.5-1-3.3-2-1.8-1-3.1-1.8-3.9-2.4-.8-.6-1.3-1.3-1.7-2-.4-.7-.6-1.5-.6-2.4 0-1.5.6-2.8 1.7-3.9 1.2-1.1 2.6-1.6 4.4-1.6 1.1 0 2.3.3 3.6.8.6.3 1 .4 1.2.4.3 0 .5-.1.7-.2.2-.2.3-.5.4-1h.6zM83.5 68.6c1.5.3 2.6.8 3.3 1.5 1 1 1.5 2.1 1.5 3.5 0 1-.3 2.1-1 3-.7 1-1.6 1.7-2.7 2.1-1.2.4-2.9.7-5.3.7h-10v-.6h.8c.9 0 1.5-.3 1.9-.8.2-.4.4-1.1.4-2.3V62c0-1.3-.2-2.1-.5-2.5-.4-.5-1-.7-1.8-.7h-.8v-.6h9.1c1.7 0 3.1.1 4.1.4 1.6.4 2.7 1 3.6 2 .8.9 1.2 2 1.2 3.3 0 1.1-.3 2-1 2.8-.6.9-1.6 1.5-2.8 1.9m-8.2-.8c.4.1.8.1 1.3.2.5 0 1 .1 1.6.1 1.5 0 2.7-.2 3.4-.5.8-.3 1.3-.8 1.8-1.5.4-.7.6-1.4.6-2.2 0-1.2-.5-2.3-1.5-3.2-1-.9-2.5-1.3-4.4-1.3-1 0-2 .1-2.8.3v8.1zm0 10.1c1.2.3 2.4.4 3.6.4 1.9 0 3.3-.4 4.3-1.3 1-.8 1.5-1.9 1.5-3.1 0-.8-.2-1.6-.7-2.4-.4-.8-1.2-1.4-2.2-1.8-1-.4-2.3-.7-3.7-.7h-1.7c-.5 0-.8.1-1.1.1v8.8zM104.6 72.3h-8.2L95 75.7c-.4.8-.5 1.4-.5 1.8 0 .3.2.6.5.8.3.2 1 .4 2 .5v.6h-6.6v-.6c.9-.2 1.5-.4 1.7-.6.5-.5 1.1-1.5 1.8-3l7.4-17.4h.5l7.3 17.6c.6 1.4 1.1 2.3 1.6 2.7.5.4 1.2.7 2 .7v.6h-8.3v-.6c.8 0 1.4-.2 1.7-.4.3-.2.4-.5.4-.9 0-.5-.2-1.2-.6-2.2l-1.3-3zm-.4-1.1l-3.6-8.5-3.7 8.5h7.3zM112.6 58.3h5.7l12.9 15.8V61.9c0-1.3-.1-2.1-.4-2.4-.4-.4-1-.7-1.8-.7h-.7v-.6h7.3v.6h-.7c-.9 0-1.5.3-1.9.8-.2.3-.3 1.1-.3 2.3v17.8h-.7l-13.9-17v13c0 1.3.1 2.1.4 2.4.4.4 1 .7 1.8.7h.7v.6h-7.3v-.6h.7c.9 0 1.5-.3 1.9-.8.2-.3.3-1.1.3-2.3V61.1c-.6-.7-1.1-1.2-1.4-1.4-.3-.2-.8-.4-1.4-.6-.3-.1-.8-.1-1.4-.1v-.7zM145.6 67.7l7.8 7.7c1.3 1.3 2.4 2.1 3.3 2.6.9.5 1.8.7 2.7.8v.6h-10v-.6c.6 0 1-.1 1.3-.3.3-.2.4-.4.4-.7 0-.2 0-.5-.1-.7-.1-.2-.4-.6-1-1.1l-7.3-7.2v6.8c0 1.1.1 1.8.2 2.1.1.3.3.5.7.7.4.2.9.4 1.4.4h.7v.6h-9v-.6h.7c.9 0 1.5-.3 1.9-.8.2-.3.4-1.1.4-2.4V62c0-1.1-.1-1.8-.2-2.1-.1-.2-.3-.5-.6-.7-.5-.2-.9-.4-1.4-.4h-.7v-.6h9v.6h-.7c-.5 0-1 .1-1.4.4-.3.2-.5.4-.7.7-.1.3-.2 1-.2 2.1v6.5c.2-.2.9-.9 2.1-2 3.1-2.8 4.9-4.7 5.6-5.6.3-.4.4-.8.4-1.1 0-.2-.1-.4-.3-.6-.2-.2-.6-.3-1.1-.3h-.5v-.6h7.7v.6c-.5 0-.9.1-1.2.2-.4.1-.8.3-1.4.7-.5.3-1.2.9-2 1.6l-3.2 3.2-3.3 3.1z"/></svg>